REM MD5 0929cbaedf345670f7d11b0c6a565de5
FILE "Spin Jam (Europe).bin" BINARY
  TRACK 01 MODE2/2352
    INDEX 01 00:00:00
  TRACK 02 AUDIO
    INDEX 00 06:25:04
    INDEX 01 06:27:04
  TRACK 03 AUDIO
    INDEX 00 07:06:04
    INDEX 01 07:08:04
  TRACK 04 AUDIO
    INDEX 00 11:00:04
    INDEX 01 11:02:04
  TRACK 05 AUDIO
    INDEX 00 14:41:04
    INDEX 01 14:43:04
REM LEADOUT 18:50:04
